# xmcd CD database file
#
# Track frame offsets:
#	150
#	15695
#	24336
#	32878
#	42892
#	54185
#	78283
#	90606
#	101614
#	110880
#	121350
#	130051
#	141891
#	152258
#	163182
#	173618
#	181447
#	192696
#	206589
#	218135
#	231800
#	242504
#	254049
#	266412
#	277727
#	292893
#	304703
#	324752
#	336252
#	349191
#
# Disc length: 4842 seconds
#
# Revision: 0
# Processed by: cddbd v1.5.2PL0 Copyright (c) Steve Scherf et al.
# Submitted via: CDex 1.51
#
DISCID=a312e81e
DTITLE=Jackie Davis - Five Classic Albums - CD 1
DYEAR=1960
DGENRE=Jazz
TTITLE0=Across The Alley From The Alamo
TTITLE1=Darn That Dream
TTITLE2=I Got The Sun In The Morning
TTITLE3=I Wonder When My Baby's Coming Home
TTITLE4=Isn't It Romantic
TTITLE5=What's The Trouble
TTITLE6=Hitch Your Wagon To A Star
TTITLE7=So Beats My Heart For You
TTITLE8=Jumpin' Jackie
TTITLE9=Moonlight Becomes You
TTITLE10=I'd Love To Take Orders From You
TTITLE11=Coffee Time
TTITLE12=Ain't She Sweet
TTITLE13=A Woman In Love
TTITLE14=Rain On The Roof
TTITLE15=Heat Wave
TTITLE16=In A Little Spanish Town
TTITLE17=Then I'll Be Happy
TTITLE18=Lady, Play Your Mandolin
TTITLE19=I Got Plenty O' Nuttin'
TTITLE20=Track 9 Glow - Worm Cha Cha Cha
TTITLE21=Perfidia
TTITLE22=Love Is Just Around The Corner
TTITLE23=Manana
TTITLE24=Yours Is My Heart Alone
TTITLE25=Frenesi
TTITLE26=When I'm With You
TTITLE27=My, My!
TTITLE28=There's Something In The Air
TTITLE29=Track 6 Charleston Alley
EXTD=YEAR: 1960
EXTT0=
EXTT1=
EXTT2=
EXTT3=
EXTT4=
EXTT5=
EXTT6=
EXTT7=
EXTT8=
EXTT9=
EXTT10=
EXTT11=
EXTT12=
EXTT13=
EXTT14=
EXTT15=
EXTT16=
EXTT17=
EXTT18=
EXTT19=
EXTT20=
EXTT21=
EXTT22=
EXTT23=
EXTT24=
EXTT25=
EXTT26=
EXTT27=
EXTT28=
EXTT29=
PLAYORDER=
